<svg width="212" height="106" viewBox="0 0 212 106" fill="none" xmlns="http://www.w3.org/2000/svg">
<path d="M165.892 38.4824C167.52 37.3745 168.769 35.7956 169.474 33.9576C170.178 32.1195 170.304 30.1099 169.835 28.1982C168.121 29.3639 166.828 31.0503 166.147 33.0079C166.116 33.1066 166.079 33.2053 166.048 33.304C166.017 33.4027 165.981 33.5325 165.95 33.6416C165.892 33.8494 165.846 34.0623 165.804 34.2701L165.659 35.2102C165.659 35.4336 165.622 35.6569 165.617 35.8802C165.617 35.9945 165.617 36.114 165.617 36.2334C165.617 36.3529 165.617 36.4464 165.617 36.5503C165.645 37.2018 165.737 37.849 165.892 38.4824Z" fill="url(#paint0_linear_52_4102)"/>
<path d="M90.2568 41.9624C89.901 42.6956 89.3374 43.3079 88.6362 43.7232C89.606 44.1296 90.4262 44.8264 90.9839 45.7177C91.5385 46.6608 91.8174 47.7405 91.789 48.8342C91.789 50.9118 91.119 52.5358 89.7789 53.7062C88.4389 54.8766 86.5794 55.4548 84.2005 55.441H76.1757C75.8849 55.441 75.7446 55.2852 75.7446 54.9787V33.8026C75.7446 33.491 75.8849 33.3403 76.1757 33.3403H84.2005C86.2781 33.3403 87.9022 33.8701 89.0725 34.9297C90.2429 35.9893 90.8247 37.4783 90.8177 39.3966C90.8337 40.2839 90.6416 41.1627 90.2568 41.9624ZM86.2366 37.3865C85.6336 36.8932 84.8697 36.6398 84.0915 36.6749H79.4532V42.2741H84.0915C84.8752 42.3145 85.6458 42.0608 86.2522 41.5625C86.5278 41.2944 86.7424 40.97 86.8813 40.6115C87.0203 40.253 87.0803 39.8687 87.0573 39.4849C87.0868 39.0959 87.0284 38.7053 86.8863 38.3421C86.7443 37.9788 86.5222 37.6522 86.2366 37.3865ZM84.2005 52.1012C85.1915 52.158 86.1721 51.8739 86.9793 51.2961C87.3377 50.9903 87.6186 50.6041 87.7991 50.169C87.9796 49.7339 88.0547 49.2623 88.0182 48.7926C88.0382 48.348 87.9629 47.9043 87.7971 47.4913C87.6314 47.0783 87.3791 46.7055 87.0573 46.3981C86.2454 45.7521 85.2195 45.4368 84.1849 45.5152H79.4843V52.1012H84.2005Z" fill="white"/>
<path d="M107.335 39.4281C107.646 39.4281 107.797 39.5735 107.797 39.8592V54.0181C107.807 54.1346 107.78 54.2513 107.719 54.3512C107.658 54.4511 107.567 54.5291 107.459 54.5739C105.548 55.4065 103.483 55.8276 101.398 55.8101C99.1956 55.8101 97.4642 55.2439 96.2038 54.1116C94.9434 52.9793 94.3149 51.2272 94.3184 48.8553V39.8592C94.3184 39.5735 94.469 39.4281 94.7806 39.4281H97.4711C97.5296 39.4204 97.589 39.4263 97.6448 39.4452C97.7006 39.4642 97.7513 39.4957 97.793 39.5374C97.8346 39.5791 97.8662 39.6297 97.8851 39.6855C97.9041 39.7413 97.9099 39.8007 97.9023 39.8592V48.7929C97.9023 50.178 98.1966 51.158 98.7852 51.7328C99.1402 52.04 99.5524 52.2743 99.998 52.4223C100.444 52.5702 100.914 52.6289 101.382 52.595C102.335 52.6284 103.286 52.5037 104.197 52.2262V39.8592C104.19 39.8007 104.196 39.7413 104.215 39.6855C104.234 39.6297 104.265 39.5791 104.307 39.5374C104.348 39.4957 104.399 39.4642 104.455 39.4452C104.511 39.4263 104.57 39.4204 104.629 39.4281H107.335Z" fill="white"/>
<path d="M123.904 39.4281C124.215 39.4281 124.366 39.5735 124.366 39.8592V54.0181C124.376 54.1346 124.349 54.2513 124.288 54.3512C124.227 54.4511 124.136 54.5291 124.028 54.5739C122.115 55.4073 120.048 55.8285 117.962 55.8101C115.756 55.8101 114.025 55.2439 112.768 54.1116C111.511 52.9793 110.882 51.2272 110.882 48.8553V39.8592C110.882 39.5735 111.033 39.4281 111.345 39.4281H114.035C114.094 39.4204 114.153 39.4263 114.209 39.4452C114.265 39.4642 114.315 39.4957 114.357 39.5374C114.399 39.5791 114.43 39.6297 114.449 39.6855C114.468 39.7413 114.474 39.8007 114.466 39.8592V48.7929C114.466 50.178 114.761 51.158 115.349 51.7328C116.066 52.3528 117.001 52.6629 117.946 52.595C118.897 52.628 119.846 52.5034 120.756 52.2262V39.8592C120.749 39.8007 120.754 39.7413 120.773 39.6855C120.792 39.6297 120.824 39.5791 120.866 39.5374C120.907 39.4957 120.958 39.4642 121.014 39.4452C121.069 39.4263 121.129 39.4204 121.187 39.4281H123.904Z" fill="white"/>
<path d="M127.415 55.4413C127.352 55.4499 127.288 55.4439 127.228 55.4237C127.168 55.4035 127.114 55.3697 127.069 55.3249C127.024 55.2801 126.99 55.2256 126.97 55.1656C126.95 55.1056 126.944 55.0417 126.953 54.979V40.7577C126.946 40.6464 126.975 40.5357 127.035 40.4422C127.096 40.3486 127.186 40.2772 127.29 40.2383C128.114 39.8325 128.987 39.5357 129.887 39.3553C130.818 39.1605 131.767 39.063 132.718 39.0645C133.774 39.0631 134.828 39.1447 135.871 39.3086C135.929 39.3088 135.986 39.3213 136.039 39.3455C136.091 39.3697 136.138 39.4048 136.176 39.4486C136.214 39.4925 136.242 39.5439 136.258 39.5995C136.275 39.6551 136.279 39.7135 136.271 39.7709V41.9991C136.276 42.0582 136.266 42.1176 136.242 42.1719C136.219 42.2263 136.182 42.274 136.136 42.3107C136.027 42.3723 135.9 42.3926 135.777 42.3679C134.946 42.272 134.11 42.2321 133.274 42.2484C132.347 42.2118 131.422 42.3583 130.552 42.6795V54.9842C130.561 55.0469 130.555 55.1108 130.534 55.1708C130.514 55.2308 130.48 55.2853 130.436 55.3301C130.391 55.3749 130.336 55.4087 130.276 55.4289C130.216 55.449 130.152 55.4551 130.09 55.4465L127.415 55.4413Z" fill="white"/>
<path d="M151.572 39.428C151.879 39.428 152.035 39.5734 152.035 39.8591V54.0181C152.043 54.1343 152.015 54.2503 151.955 54.3499C151.894 54.4495 151.804 54.5277 151.697 54.5738C149.786 55.4064 147.72 55.8276 145.636 55.81C143.433 55.81 141.702 55.2439 140.442 54.1116C139.181 52.9793 138.553 51.2271 138.556 48.8552V39.8591C138.556 39.5734 138.712 39.428 139.024 39.428H141.709C141.768 39.4195 141.828 39.4247 141.884 39.4432C141.941 39.4618 141.992 39.4932 142.034 39.535C142.077 39.5767 142.109 39.6278 142.128 39.684C142.147 39.7402 142.153 39.8002 142.145 39.8591V48.7929C142.145 50.1779 142.438 51.1579 143.023 51.7327C143.741 52.3523 144.674 52.6623 145.62 52.5949C146.572 52.6278 147.524 52.5032 148.435 52.2261V39.8591C148.426 39.8005 148.432 39.7406 148.45 39.6843C148.469 39.628 148.5 39.5768 148.542 39.5349C148.584 39.493 148.635 39.4614 148.692 39.4429C148.748 39.4243 148.808 39.4192 148.866 39.428H151.572Z" fill="white"/>
<path d="M159.597 55.8101C158.885 55.8549 158.171 55.738 157.51 55.4682C156.849 55.1984 156.257 54.7826 155.78 54.2519C154.881 53.2131 154.434 51.7276 154.434 49.8318V33.803C154.426 33.7402 154.432 33.6764 154.452 33.6164C154.472 33.5563 154.506 33.5018 154.551 33.4571C154.596 33.4123 154.65 33.3785 154.71 33.3583C154.77 33.3381 154.834 33.3321 154.897 33.3407H157.556C157.619 33.331 157.683 33.3362 157.744 33.356C157.804 33.3758 157.859 33.4096 157.904 33.4546C157.949 33.4996 157.983 33.5546 158.003 33.6152C158.023 33.6757 158.028 33.74 158.018 33.803V49.6915C157.965 50.4546 158.146 51.2157 158.538 51.873C158.724 52.1018 158.963 52.2815 159.235 52.3964C159.507 52.5114 159.802 52.5582 160.096 52.5327C160.345 52.5327 160.735 52.5327 161.27 52.4755C161.333 52.4658 161.397 52.4711 161.458 52.4909C161.518 52.5106 161.573 52.5444 161.618 52.5894C161.663 52.6345 161.697 52.6895 161.717 52.75C161.737 52.8105 161.742 52.8749 161.732 52.9378V55.2232C161.732 55.5348 161.623 55.701 161.394 55.7426C160.797 55.7975 160.197 55.8201 159.597 55.8101Z" fill="white"/>
<path d="M167.861 55.6906C167.861 57.5864 167.414 59.0563 166.521 60.1107C166.042 60.6405 165.451 61.0556 164.79 61.3254C164.129 61.5952 163.416 61.7126 162.703 61.6689C162.182 61.6733 161.662 61.6421 161.145 61.5754C161.019 61.5617 160.903 61.5026 160.818 61.4092C160.749 61.3142 160.712 61.1994 160.714 61.082V58.7966C160.711 58.7332 160.722 58.6699 160.745 58.6108C160.768 58.5517 160.804 58.4983 160.849 58.4538C160.948 58.3685 161.076 58.324 161.207 58.3291C161.727 58.3707 162.044 58.3915 162.246 58.3915C162.54 58.4173 162.837 58.3701 163.108 58.2542C163.38 58.1382 163.619 57.957 163.804 57.7266C164.186 57.0797 164.359 56.3304 164.298 55.5815V39.8435C164.29 39.7851 164.296 39.7257 164.315 39.6699C164.334 39.6141 164.365 39.5634 164.407 39.5218C164.449 39.4801 164.499 39.4486 164.555 39.4296C164.611 39.4106 164.67 39.4048 164.729 39.4124H167.419C167.731 39.4124 167.882 39.5579 167.882 39.8435L167.861 55.6906Z" fill="white"/>
<path d="M183.999 39.4281C184.311 39.4281 184.461 39.5735 184.461 39.8592V54.0181C184.471 54.1346 184.444 54.2513 184.383 54.3512C184.322 54.4511 184.232 54.5291 184.124 54.5739C182.214 55.4059 180.15 55.8271 178.067 55.8101C175.862 55.8101 174.13 55.2439 172.873 54.1116C171.616 52.9793 170.988 51.2272 170.988 48.8553V39.8592C170.988 39.5735 171.138 39.4281 171.45 39.4281H174.141C174.199 39.4204 174.258 39.4263 174.314 39.4452C174.37 39.4642 174.421 39.4957 174.462 39.5374C174.504 39.5791 174.536 39.6297 174.555 39.6855C174.573 39.7413 174.579 39.8007 174.572 39.8592V48.7929C174.572 50.178 174.866 51.158 175.455 51.7328C176.172 52.3528 177.106 52.6629 178.052 52.595C179.002 52.628 179.952 52.5034 180.862 52.2262V39.8592C180.854 39.8007 180.86 39.7413 180.879 39.6855C180.898 39.6297 180.929 39.5791 180.971 39.5374C181.013 39.4957 181.063 39.4642 181.119 39.4452C181.175 39.4263 181.234 39.4204 181.293 39.4281H183.999Z" fill="white"/>
<path d="M200.547 39.4278C200.859 39.4278 201.014 39.5733 201.014 39.8589V54.0179C201.023 54.1348 200.995 54.2516 200.933 54.3514C200.872 54.4513 200.78 54.529 200.672 54.5737C198.762 55.4057 196.698 55.8268 194.615 55.8098C192.41 55.8098 190.678 55.2437 189.421 54.1114C188.164 52.9791 187.545 51.227 187.562 48.855V39.8589C187.562 39.5733 187.713 39.4278 188.024 39.4278H190.715C190.773 39.4202 190.832 39.426 190.888 39.445C190.944 39.4639 190.995 39.4955 191.036 39.5371C191.078 39.5788 191.11 39.6295 191.129 39.6853C191.148 39.7411 191.153 39.8005 191.146 39.8589V48.7927C191.146 50.1778 191.44 51.1577 192.029 51.7325C192.746 52.3526 193.68 52.6627 194.626 52.5947C195.574 52.6288 196.522 52.506 197.431 52.2311V39.8589C197.423 39.8 197.429 39.7401 197.448 39.6838C197.467 39.6276 197.499 39.5766 197.541 39.5348C197.584 39.493 197.635 39.4616 197.692 39.443C197.748 39.4245 197.808 39.4193 197.867 39.4278H200.547Z" fill="white"/>
<path d="M207.772 49.8473C207.731 50.5626 207.957 51.2678 208.406 51.8262C208.637 52.0691 208.919 52.2582 209.231 52.3803C209.543 52.5023 209.879 52.5543 210.213 52.5326L211.48 52.4754C211.813 52.4754 212 52.6157 212 52.9065V55.2543C212 55.5659 211.86 55.7269 211.569 55.7477C210.876 55.7892 210.331 55.81 209.933 55.81C208.42 55.8832 206.936 55.3823 205.777 54.4076C204.739 53.4692 204.219 52.0305 204.219 50.0914V35.9636C204.219 35.6779 204.37 35.5325 204.682 35.5325H207.029C207.143 35.5287 207.254 35.5676 207.341 35.6415C207.425 35.7172 207.48 35.8202 207.497 35.9324L207.772 39.6461H211.081C211.387 39.6461 211.543 39.7864 211.543 40.0773V42.3315C211.543 42.6223 211.387 42.7678 211.081 42.7678H207.803L207.772 49.8473Z" fill="white"/>
<path d="M81.853 68.8886V71.8959C81.853 73.6619 80.2948 74.602 78.7106 74.602C78.0575 74.6136 77.4117 74.4637 76.8304 74.1657V77.2822H75.5786V66.7746C76.599 66.4073 77.673 66.2108 78.7574 66.1929C80.3052 66.1981 81.853 67.0914 81.853 68.8886ZM80.5649 71.9115V68.8522C80.5649 67.9329 79.6559 67.3823 78.7366 67.3823C78.0888 67.358 77.4406 67.4209 76.8096 67.5693V73.0334C77.4144 73.2676 78.0569 73.389 78.7054 73.3918C79.6611 73.4126 80.5649 72.862 80.5649 71.9115Z" fill="white"/>
<path d="M89.6074 68.9041C89.6074 67.107 91.1656 66.198 92.7238 66.198C94.2821 66.198 95.8403 67.107 95.8403 68.9041V71.9114C95.8403 73.7086 94.2821 74.6175 92.7238 74.6175C91.1656 74.6175 89.6074 73.7086 89.6074 71.9114V68.9041ZM90.8592 68.8729V71.927C90.8592 72.9243 91.8253 73.4281 92.7498 73.4281C93.6744 73.4281 94.6145 72.9087 94.6145 71.927V68.8521C94.6145 67.8133 93.6276 67.3667 92.7498 67.3667C91.872 67.3667 90.8592 67.8601 90.8592 68.8521V68.8729Z" fill="white"/>
<path d="M108.909 66.4837L110.566 73.236H110.612L111.132 70.9039L112.461 66.3643H113.682L111.256 74.4722H109.755L108.893 70.8363L108.332 68.1302L107.771 70.8519L106.893 74.4877H105.392L102.951 66.3798H104.219L105.548 70.9194L106.094 73.2516H106.14L107.756 66.4993L108.909 66.4837Z" fill="white"/>
<path d="M122.117 72.0205C122.117 73.0074 123.041 73.4593 123.992 73.4593C124.373 73.4768 124.752 73.3824 125.08 73.1877C125.409 72.993 125.673 72.7064 125.841 72.3633L126.937 72.836C126.663 73.3799 126.242 73.8357 125.721 74.1508C125.2 74.466 124.601 74.6277 123.992 74.6175C122.434 74.6175 120.875 73.7397 120.875 71.927V68.8885C120.875 67.0758 122.434 66.198 123.992 66.198C125.55 66.198 127.108 67.0758 127.108 68.8885V71.0336H122.117V72.0205ZM125.903 68.8262C125.903 67.8913 124.916 67.3407 123.992 67.3407C122.953 67.3407 122.117 67.8601 122.117 68.8573V69.9844H125.903V68.8262Z" fill="white"/>
<path d="M136.178 68.9043V74.4619H134.926V68.9043C134.926 67.076 136.541 66.1982 137.964 66.1982C138.2 66.1957 138.434 66.2166 138.665 66.2605V67.4344C138.45 67.3956 138.23 67.3799 138.011 67.3876C137.024 67.3876 136.178 67.907 136.178 68.9043Z" fill="white"/>
<path d="M161.633 68.8886V71.8959C161.633 73.6619 160.075 74.602 158.486 74.602C157.834 74.6136 157.19 74.4637 156.611 74.1657V77.2822H155.359V66.7746C156.378 66.4079 157.45 66.2114 158.532 66.1929C160.08 66.1981 161.633 67.0914 161.633 68.8886ZM160.366 71.9115V68.8522C160.366 67.9329 159.457 67.3823 158.532 67.3823C157.886 67.3579 157.24 67.4208 156.611 67.5693V73.0334C157.214 73.2675 157.854 73.389 158.501 73.3918C159.441 73.4126 160.366 72.862 160.366 71.9115Z" fill="white"/>
<path d="M172.343 74.6177C170.572 74.6177 169.59 73.6464 169.59 71.9739V63.5232H170.842V71.9687C170.819 72.1701 170.842 72.3741 170.91 72.5652C170.977 72.7563 171.088 72.9294 171.233 73.0712C171.378 73.2131 171.553 73.3199 171.745 73.3836C171.938 73.4473 172.142 73.4661 172.343 73.4386V74.6177Z" fill="white"/>
<path d="M184.207 68.8106C184.207 67.8757 183.251 67.3563 182.301 67.3563C181.922 67.3431 181.545 67.4152 181.198 67.5671C180.851 67.719 180.543 67.947 180.296 68.2341L179.511 67.4653C179.881 67.0698 180.327 66.7535 180.823 66.5356C181.318 66.3177 181.853 66.2029 182.394 66.198C183.952 66.198 185.459 67.0602 185.459 68.795V74.0566C184.912 74.2551 184.346 74.3961 183.771 74.4773C183.279 74.5566 182.783 74.5983 182.285 74.602H182.114C180.483 74.602 179.215 73.7865 179.215 72.0673C179.215 70.348 180.701 69.4702 182.269 69.4702C182.935 69.4653 183.595 69.598 184.207 69.8598V68.8106ZM180.452 72.0828C180.452 73.1216 181.189 73.5372 182.145 73.5527H182.488C182.721 73.5527 182.939 73.5527 183.173 73.5527C183.523 73.5395 183.871 73.4925 184.212 73.4125V70.8155C183.629 70.6144 183.016 70.5091 182.399 70.5038C181.392 70.4883 180.452 70.9298 180.452 72.0828Z" fill="white"/>
<path d="M199.784 74.4617H198.548V68.8106C198.548 67.8082 197.592 67.3563 196.735 67.3563C196.081 67.364 195.434 67.4871 194.824 67.7198V74.4721H193.572V66.8732C194.583 66.4788 195.651 66.2508 196.735 66.198C198.293 66.2447 199.784 67.0602 199.784 68.8573V74.4617Z" fill="white"/>
<path d="M207.928 71.9686V64.3074H209.164V66.3538H210.821V67.5121H209.164V71.9686C209.161 72.3229 209.278 72.6678 209.497 72.9464C209.716 73.225 210.024 73.4205 210.369 73.5008C210.51 73.5455 210.657 73.5665 210.805 73.5632C210.954 73.562 211.101 73.5463 211.247 73.5164V74.5656C211.07 74.5656 210.93 74.5968 210.758 74.5968C209.117 74.6175 207.928 73.6307 207.928 71.9686Z" fill="white"/>
<path d="M45.2866 64.4841C45.6105 63.8394 45.7792 63.1279 45.7792 62.4065C45.7792 61.685 45.6105 60.9735 45.2866 60.3289C44.9639 60.9739 44.7959 61.6852 44.7959 62.4065C44.7959 63.1277 44.9639 63.8391 45.2866 64.4841Z" fill="url(#paint1_linear_52_4102)"/>
<path d="M48.1695 64.9982C48.6768 64.3244 49.0123 63.5372 49.1472 62.7046C49.282 61.8721 49.2121 61.0192 48.9434 60.2197C48.4361 60.8935 48.1006 61.6807 47.9657 62.5133C47.8309 63.3459 47.9008 64.1988 48.1695 64.9982Z" fill="url(#paint2_linear_52_4102)"/>
<path d="M50.2732 65.7358C51.1178 65.1943 51.8118 64.4479 52.2904 63.5661C52.769 62.6842 53.0167 61.6957 53.0105 60.6924C52.1638 61.2317 51.4683 61.9777 50.9894 62.86C50.5105 63.7423 50.2641 64.732 50.2732 65.7358Z" fill="url(#paint3_linear_52_4102)"/>
<path d="M53.0674 67.024C54.2232 66.5745 55.2392 65.8267 56.012 64.8568C56.7847 63.887 57.2867 62.7296 57.4667 61.5027C56.311 61.9522 55.295 62.6999 54.5222 63.6698C53.7494 64.6396 53.2474 65.797 53.0674 67.024Z" fill="url(#paint4_linear_52_4102)"/>
<path d="M54.7505 69.1275C56.4368 69.1188 58.0876 68.6422 59.5191 67.7509C60.9506 66.8595 62.1066 65.5883 62.8584 64.0789C61.172 64.087 59.5209 64.5633 58.0893 65.4547C56.6577 66.3461 55.5018 67.6176 54.7505 69.1275Z" fill="url(#paint5_linear_52_4102)"/>
<path d="M55.2075 71.657C55.5746 71.7984 55.9492 71.9198 56.3294 72.0206C58.4743 71.4081 60.735 71.3208 62.9207 71.766C64.3586 71.2503 65.673 70.4401 66.7798 69.3872C64.8348 68.6256 62.7129 68.4346 60.6631 68.8367C58.6133 69.2387 56.7208 70.2171 55.2075 71.657Z" fill="url(#paint6_linear_52_4102)"/>
<path d="M44.7262 49.5304C49.8565 42.296 52.6208 33.6505 52.6394 24.7817C52.658 15.9129 49.93 7.25584 44.83 0C39.4391 7.61046 36.6682 16.7671 36.9351 26.0897C36.9351 26.5623 36.9663 27.035 36.9974 27.5024C37.0286 27.9699 37.0753 28.5413 37.1273 29.0866C37.2208 30.0475 37.3506 31.0084 37.5116 31.9589L38.431 36.1142C38.6907 37.0872 38.9902 38.0498 39.3295 39.0021C39.5009 39.5215 39.6879 40.0045 39.8905 40.5031C40.0931 41.0018 40.2437 41.3913 40.4359 41.8328C41.5979 44.5392 43.0355 47.1186 44.7262 49.5304Z" fill="url(#paint7_linear_52_4102)"/>
<path d="M31.4653 47.9774C31.7302 48.3098 31.9847 48.6371 32.2859 48.9591C32.5872 49.2811 32.8053 49.5564 33.0806 49.8525C34.4598 51.3367 35.9533 52.7104 37.5475 53.9609C38.8006 50.1296 39.437 46.1236 39.4329 42.0926C37.3122 37.1034 36.1391 31.7629 35.9737 26.3442C33.4506 20.877 29.6618 16.0894 24.9208 12.3774C22.5229 19.6795 22.4051 27.5386 24.5832 34.9092C24.6922 35.2884 24.8117 35.6623 24.9364 36.0363C25.061 36.4103 25.1961 36.8102 25.3363 37.1946C26.7704 41.1024 28.8414 44.7459 31.4653 47.9774Z" fill="url(#paint8_linear_52_4102)"/>
<path d="M17.0262 46.5178C17.2703 46.8606 17.5456 47.1982 17.7793 47.5254C18.013 47.8527 18.3559 48.2578 18.6519 48.6162C20.6991 51.049 23.0748 53.1852 25.7106 54.9633C26.1054 55.2282 26.5053 55.4827 26.9156 55.732C27.326 55.9813 27.648 56.1735 28.0168 56.3865C29.7209 57.3402 31.5017 58.1498 33.3407 58.8069C33.3127 55.9527 32.9253 53.1135 32.1876 50.3562C28.2963 46.0818 25.4122 40.9898 23.7473 35.4545C20.0977 31.6925 15.6291 28.8237 10.6895 27.0713C10.7578 34.0499 12.9699 40.8387 17.0262 46.5178Z" fill="url(#paint9_linear_52_4102)"/>
<path d="M14.05 58.9835C14.398 59.238 14.7511 59.5029 15.1199 59.7315C15.4887 59.96 15.9666 60.2872 16.4029 60.5521C18.6072 61.8754 20.9679 62.9188 23.4304 63.6582C23.9498 63.8088 24.438 63.949 24.9522 64.0737C25.3678 64.1776 25.7885 64.2711 26.2144 64.3542C27.8471 64.6878 29.5043 64.8876 31.1695 64.9515C30.2594 62.1766 28.9638 59.5435 27.3207 57.1292C23.0146 54.6524 19.2843 51.2885 16.3769 47.2606C12.2302 45.0297 7.62938 43.7737 2.92432 43.5884C4.93112 49.7576 8.82228 55.142 14.05 58.9835Z" fill="url(#paint10_linear_52_4102)"/>
<path d="M0 60.6353C3.44497 65.1399 8.14266 68.5277 13.5045 70.3742C13.8577 70.4988 14.2161 70.6131 14.5745 70.7222C14.9329 70.8312 15.364 70.9559 15.7639 71.0546C18.8643 71.8463 22.0747 72.1166 25.2638 71.8545C25.6845 71.8233 26.1001 71.7765 26.5208 71.7246C26.9415 71.6727 27.2739 71.6207 27.6479 71.5636C28.8763 71.3551 30.0905 71.0706 31.2837 70.7118C29.7231 68.6747 27.8997 66.8531 25.8611 65.2944C21.4706 64.3664 17.3255 62.5221 13.6967 59.8822C9.13726 59.024 4.43784 59.2824 0 60.6353Z" fill="url(#paint11_linear_52_4102)"/>
<path d="M2.58643 75.9836C7.37091 79.1644 13.0481 80.7297 18.7866 80.4505C19.384 80.4245 19.9761 80.3777 20.5682 80.305C22.5693 80.0751 24.5382 79.6204 26.4375 78.9494C26.9569 78.7572 27.5178 78.5443 28.0528 78.3157C29.8546 77.5456 31.5667 76.5807 33.1586 75.4382C31.4006 74.2694 29.5107 73.3123 27.5282 72.5867C22.9136 73.3069 18.1941 72.9278 13.7536 71.4804L13.4264 71.3765C9.51705 72.0924 5.81496 73.6658 2.58643 75.9836Z" fill="url(#paint12_linear_52_4102)"/>
<path d="M9.92578 88.7196C14.7867 90.1214 19.9677 89.9394 24.7184 88.2002C25.1911 88.0339 25.6533 87.847 26.1104 87.6392C26.9066 87.2956 27.6819 86.9054 28.4322 86.4705C28.884 86.2057 29.3307 85.9511 29.7618 85.6395C30.4975 85.1503 31.2034 84.6179 31.8758 84.0449C32.2498 83.7333 32.6082 83.4061 32.9614 83.0684C33.8746 82.1966 34.7169 81.2535 35.4805 80.2481C33.119 79.5657 30.6659 79.2538 28.2088 79.3235C25.3014 80.5292 22.2102 81.2317 19.0673 81.4012C15.4576 83.0402 12.3151 85.556 9.92578 88.7196Z" fill="url(#paint13_linear_52_4102)"/>
<path d="M19.7944 98.3438C23.2742 98.0294 26.6265 96.8785 29.5657 94.9893C32.5049 93.1001 34.9439 90.5285 36.6751 87.4935C37.5114 86.0168 38.1737 84.4481 38.6488 82.8188C36.8965 82.9731 35.1696 83.3412 33.5067 83.9148C31.1313 86.1523 28.3346 87.895 25.2793 89.0413C22.6974 91.6312 20.8109 94.8309 19.7944 98.3438Z" fill="url(#paint14_linear_52_4102)"/>
<path d="M31.4241 104.416C34.9821 102.588 37.9092 99.7338 39.8262 96.223C41.7431 92.7123 42.5617 88.7067 42.1758 84.7253C40.4424 85.6204 38.8484 86.763 37.444 88.1171C36.4532 89.8269 35.2412 91.3987 33.8394 92.7917C31.8739 96.3318 31.0316 100.386 31.4241 104.416Z" fill="url(#paint15_linear_52_4102)"/>
<path d="M42.9446 105.122C45.5897 102.358 47.312 98.8406 47.8737 95.056C47.9843 94.3302 48.0485 93.5981 48.0659 92.8642C48.001 92.1459 47.9802 91.4243 48.0036 90.7034C47.9344 89.9935 47.8269 89.2878 47.6815 88.5895C47.4075 87.2796 46.9931 86.0032 46.4454 84.7822C45.0438 86.2501 43.8927 87.9381 43.0381 89.7789C42.7642 91.6398 42.2401 93.4551 41.4799 95.1755C41.0387 98.5627 41.5457 102.006 42.9446 105.122Z" fill="url(#paint16_linear_52_4102)"/>
<path d="M52.87 102.686C54.3232 99.6443 54.8379 96.2385 54.3486 92.903C53.8593 89.5674 52.388 86.453 50.1224 83.9565C49.4343 85.4034 48.9551 86.9406 48.6992 88.5221C49.1285 90.6583 49.1935 92.8516 48.8914 95.0095C49.534 97.8684 50.9045 100.513 52.87 102.686Z" fill="url(#paint17_linear_52_4102)"/>
<path d="M60.7132 96.8171C61.039 93.9153 60.5385 90.9805 59.2692 88.3508C59.0823 87.9664 58.8797 87.5925 58.6667 87.2237C57.8352 85.8043 56.7833 84.5262 55.5503 83.4372C55.2387 83.1671 54.9114 82.9178 54.5738 82.6529C54.0482 82.2634 53.4982 81.9077 52.9273 81.5881C52.7481 83.1804 52.8182 84.7908 53.1351 86.3615C54.0482 87.9336 54.7156 89.6362 55.114 91.4101C56.487 93.6618 58.4149 95.5235 60.7132 96.8171Z" fill="url(#paint18_linear_52_4102)"/>
<path d="M60.0485 87.6755C61.6836 88.8022 63.5447 89.5591 65.5022 89.8933C64.7415 86.8173 62.9323 84.1027 60.3861 82.2166C58.6735 80.9574 56.6903 80.1161 54.5947 79.7598C54.7851 80.5303 55.0424 81.2829 55.3635 82.0088C57.3331 83.5196 58.9348 85.457 60.0485 87.6755Z" fill="url(#paint19_linear_52_4102)"/>
<path d="M58.9835 80.1805L60.8845 81.3596C63.0437 82.446 65.4626 82.91 67.8705 82.6996C66.8119 80.7925 65.2877 79.1843 63.44 78.025C63.1076 77.812 62.77 77.6198 62.4012 77.4381C60.9448 76.6877 59.3578 76.224 57.7266 76.072C57.3422 76.0357 56.9578 76.0149 56.5683 76.0149C56.1787 76.0149 55.7684 76.0149 55.3633 76.0616C56.2631 77.6767 57.4973 79.0809 58.9835 80.1805Z" fill="url(#paint20_linear_52_4102)"/>
<path d="M54.9839 73.5632C55.5627 74.095 56.1885 74.573 56.8537 74.9916C59.2844 75.051 61.6571 75.7458 63.7359 77.0069C65.5222 77.0096 67.29 76.6454 68.9299 75.9369C67.2471 74.3887 65.1845 73.3134 62.9515 72.8205C62.5672 72.7322 62.1776 72.6647 61.7933 72.6127C60.3499 72.4283 58.8858 72.4862 57.4614 72.7841C57.0823 72.862 56.7031 72.9607 56.3239 73.075C55.8689 73.2137 55.4215 73.3767 54.9839 73.5632Z" fill="url(#paint21_linear_52_4102)"/>
<defs>
<linearGradient id="paint0_linear_52_4102" x1="164.512" y1="32.3819" x2="169.014" y2="34.2578" gradientUnits="userSpaceOnUse">
<stop stop-color="#ED2F27"/>
<stop offset="1" stop-color="#F06325"/>
</linearGradient>
<linearGradient id="paint1_linear_52_4102" x1="14.5076" y1="64.0692" x2="36.6023" y2="64.8393" gradientUnits="userSpaceOnUse">
<stop stop-color="#ED2F27"/>
<stop offset="1" stop-color="#F06325"/>
</linearGradient>
<linearGradient id="paint2_linear_52_4102" x1="14.5056" y1="64.156" x2="36.6001" y2="64.926" gradientUnits="userSpaceOnUse">
<stop stop-color="#ED2F27"/>
<stop offset="1" stop-color="#F06325"/>
</linearGradient>
<linearGradient id="paint3_linear_52_4102" x1="14.4879" y1="64.629" x2="36.5825" y2="65.3991" gradientUnits="userSpaceOnUse">
<stop stop-color="#ED2F27"/>
<stop offset="1" stop-color="#F06325"/>
</linearGradient>
<linearGradient id="paint4_linear_52_4102" x1="14.4562" y1="65.5688" x2="36.5521" y2="66.3439" gradientUnits="userSpaceOnUse">
<stop stop-color="#ED2F27"/>
<stop offset="1" stop-color="#F06325"/>
</linearGradient>
<linearGradient id="paint5_linear_52_4102" x1="14.3789" y1="67.7805" x2="36.4735" y2="68.5506" gradientUnits="userSpaceOnUse">
<stop stop-color="#ED2F27"/>
<stop offset="1" stop-color="#F06325"/>
</linearGradient>
<linearGradient id="paint6_linear_52_4102" x1="14.2513" y1="71.4591" x2="36.3458" y2="72.2292" gradientUnits="userSpaceOnUse">
<stop stop-color="#ED2F27"/>
<stop offset="1" stop-color="#F06325"/>
</linearGradient>
<linearGradient id="paint7_linear_52_4102" x1="15.8172" y1="26.5957" x2="37.9117" y2="27.3658" gradientUnits="userSpaceOnUse">
<stop stop-color="#ED2F27"/>
<stop offset="1" stop-color="#F06325"/>
</linearGradient>
<linearGradient id="paint8_linear_52_4102" x1="15.5105" y1="35.4363" x2="37.6001" y2="36.2078" gradientUnits="userSpaceOnUse">
<stop stop-color="#ED2F27"/>
<stop offset="1" stop-color="#F06325"/>
</linearGradient>
<linearGradient id="paint9_linear_52_4102" x1="15.1592" y1="45.4733" x2="37.2537" y2="46.2433" gradientUnits="userSpaceOnUse">
<stop stop-color="#ED2F27"/>
<stop offset="1" stop-color="#F06325"/>
</linearGradient>
<linearGradient id="paint10_linear_52_4102" x1="14.7553" y1="56.9509" x2="36.8498" y2="57.721" gradientUnits="userSpaceOnUse">
<stop stop-color="#ED2F27"/>
<stop offset="1" stop-color="#F06325"/>
</linearGradient>
<linearGradient id="paint11_linear_52_4102" x1="14.3566" y1="68.3519" x2="36.4511" y2="69.1219" gradientUnits="userSpaceOnUse">
<stop stop-color="#ED2F27"/>
<stop offset="1" stop-color="#F06325"/>
</linearGradient>
<linearGradient id="paint12_linear_52_4102" x1="14.0003" y1="78.5837" x2="36.0949" y2="79.3538" gradientUnits="userSpaceOnUse">
<stop stop-color="#ED2F27"/>
<stop offset="1" stop-color="#F06325"/>
</linearGradient>
<linearGradient id="paint13_linear_52_4102" x1="13.7124" y1="86.8382" x2="35.8069" y2="87.6083" gradientUnits="userSpaceOnUse">
<stop stop-color="#ED2F27"/>
<stop offset="1" stop-color="#F06325"/>
</linearGradient>
<linearGradient id="paint14_linear_52_4102" x1="13.5089" y1="92.6956" x2="35.6048" y2="93.4706" gradientUnits="userSpaceOnUse">
<stop stop-color="#ED2F27"/>
<stop offset="1" stop-color="#F06325"/>
</linearGradient>
<linearGradient id="paint15_linear_52_4102" x1="13.3785" y1="96.4022" x2="35.473" y2="97.1723" gradientUnits="userSpaceOnUse">
<stop stop-color="#ED2F27"/>
<stop offset="1" stop-color="#F06325"/>
</linearGradient>
<linearGradient id="paint16_linear_52_4102" x1="13.3775" y1="96.4937" x2="35.472" y2="97.2638" gradientUnits="userSpaceOnUse">
<stop stop-color="#ED2F27"/>
<stop offset="1" stop-color="#F06325"/>
</linearGradient>
<linearGradient id="paint17_linear_52_4102" x1="13.4438" y1="94.6457" x2="35.5333" y2="95.4172" gradientUnits="userSpaceOnUse">
<stop stop-color="#ED2F27"/>
<stop offset="1" stop-color="#F06325"/>
</linearGradient>
<linearGradient id="paint18_linear_52_4102" x1="13.5877" y1="90.3546" x2="35.6822" y2="91.1247" gradientUnits="userSpaceOnUse">
<stop stop-color="#ED2F27"/>
<stop offset="1" stop-color="#F06325"/>
</linearGradient>
<linearGradient id="paint19_linear_52_4102" x1="13.745" y1="85.882" x2="35.8409" y2="86.6571" gradientUnits="userSpaceOnUse">
<stop stop-color="#ED2F27"/>
<stop offset="1" stop-color="#F06325"/>
</linearGradient>
<linearGradient id="paint20_linear_52_4102" x1="13.9404" y1="80.3979" x2="36.0349" y2="81.168" gradientUnits="userSpaceOnUse">
<stop stop-color="#ED2F27"/>
<stop offset="1" stop-color="#F06325"/>
</linearGradient>
<linearGradient id="paint21_linear_52_4102" x1="14.0994" y1="75.7795" x2="36.1939" y2="76.5496" gradientUnits="userSpaceOnUse">
<stop stop-color="#ED2F27"/>
<stop offset="1" stop-color="#F06325"/>
</linearGradient>
</defs>
</svg>
